Coordinates
version=1
nRows=8
nColumns=40
inDegrees=yes

Units are S.I. units (second, meters, Newtons, ...)
Angles are in degrees.

endheader
time	pelvis_tilt	pelvis_list	pelvis_rotation	pelvis_tx	pelvis_ty	pelvis_tz	hip_flexion_r	hip_adduction_r	hip_rotation_r	knee_angle_r	knee_angle_r_beta	ankle_angle_r	subtalar_angle_r	mtp_angle_r	hip_flexion_l	hip_adduction_l	hip_rotation_l	knee_angle_l	knee_angle_l_beta	ankle_angle_l	subtalar_angle_l	mtp_angle_l	lumbar_extension	lumbar_bending	lumbar_rotation	arm_flex_r	arm_add_r	arm_rot_r	elbow_flex_r	pro_sup_r	wrist_flex_r	wrist_dev_r	arm_flex_l	arm_add_l	arm_rot_l	elbow_flex_l	pro_sup_l	wrist_flex_l	wrist_dev_l
     40.76000000	     -3.41823116	     -4.52619322	      4.87505103	      1.10479136	      0.93283810	      0.53014177	     11.77406212	      3.41681464	    -14.02828689	     15.46542967	     15.46542967	      9.01154175	     -2.07880328	     -4.54544269	     32.84301877	    -11.82328079	      1.45885274	     56.48990881	     56.48990881	      8.66911452	    -18.76698981	     14.10347173	    -11.95967309	      5.70674812	      1.70701170	     11.73951034	    -19.94430885	     -4.76208017	     48.15421966	     44.70007054	      0.00000000	      0.00000000	      3.21093504	    -12.32721176	     -8.40213284	     48.22624458	     44.71625285	      0.00000000	      0.00000000
     40.77385714	     -3.71326476	     -4.36475870	      5.24919892	      1.10242037	      0.93287196	      0.53066958	     11.61901582	      3.29786030	    -14.26352722	     15.06026631	     15.06026631	      9.05603246	     -2.07955779	     -4.55458396	     33.72838898	    -11.54673115	      1.30885135	     53.22273572	     53.22273572	      9.11878801	    -18.70966664	     14.12976091	    -11.93048896	      5.36920640	      1.72369889	     12.50340661	    -19.99332480	     -4.73751716	     48.55055338	     44.69835930	      0.00000000	      0.00000000	      3.18993915	    -12.31671436	     -8.37944303	     47.82277069	     44.73074859	      0.00000000	      0.00000000
     40.78771429	     -3.94917099	     -4.26657507	      5.63358315	      1.10002572	      0.93287345	      0.53102618	     11.48194570	      3.20675747	    -14.60239305	     14.80832688	     14.80832688	      9.11320371	     -1.99700886	     -4.65394901	     34.29730100	    -11.21923370	      1.26514528	     49.54550576	     49.54550576	      9.33870334	    -18.58467452	     13.79151726	    -11.99703982	      5.19674597	      1.64350803	     13.34695762	    -20.12254649	     -4.62793987	     49.12817878	     44.68990514	      0.00000000	      0.00000000	      3.25527223	    -12.28091916	     -8.38198823	     47.17182434	     44.75347668	      0.00000000	      0.00000000
     40.80157143	     -4.19981986	     -4.17189567	      6.00312253	      1.09773213	      0.93275608	      0.53130077	     11.36908675	      3.08296656	    -15.10662866	     14.58790581	     14.58790581	      9.17620377	     -1.66583818	     -4.99501761	     34.52291453	    -10.86926587	      1.17822477	     45.32183982	     45.32183982	      8.27282017	    -18.43968641	     10.52584560	    -11.99557359	      5.03562805	      1.83061456	     13.82420631	    -20.64279097	     -3.76962256	     50.19857354	     44.68247907	      0.00000000	      0.00000000	      3.91543492	    -11.98100103	     -8.73229287	     45.23152726	     44.91428367	      0.00000000	      0.00000000
     40.81542857	     -4.50562070	     -4.06066705	      6.31640930	      1.09540910	      0.93252353	      0.53151783	     11.36722648	      2.97010924	    -15.27593824	     14.44162059	     14.44162059	      9.27823274	     -1.79192957	     -5.02699376	     34.74479824	    -10.36255610	      1.35496685	     41.24007974	     41.24007974	      8.35525389	    -17.77599381	     10.77693250	    -11.94914918	      4.78772454	      1.83769433	     14.53463423	    -20.80414791	     -3.78988814	     50.65564339	     44.67731638	      0.00000000	      0.00000000	      3.83918605	    -11.90027623	     -8.70044362	     45.06397575	     44.92169194	      0.00000000	      0.00000000
     40.82928571	     -4.70516818	     -3.97045084	      6.64572883	      1.09328063	      0.93228840	      0.53148773	     11.27635235	      2.80744051	    -15.77193170	     14.39570007	     14.39570007	      9.51379745	     -1.34834350	     -5.16969722	     34.59797235	     -9.84090862	      1.65937373	     36.89938483	     36.89938483	      7.25517379	    -17.11682178	      8.49565585	    -11.97777731	      4.70103765	      1.70075483	     15.22949871	    -20.95952529	     -3.19842524	     51.71546936	     44.66934100	      0.00000000	      0.00000000	      4.02210018	    -11.84102711	     -8.88732389	     43.68964374	     45.02784454	      0.00000000	      0.00000000
     40.84314286	     -4.94207470	     -3.89775203	      6.88848935	      1.09116240	      0.93194462	      0.53146369	     11.26801592	      2.71976266	    -15.86717123	     14.38662064	     14.38662064	      9.68000726	     -1.52217746	     -5.23361792	     34.53130765	     -9.39062943	      1.94400068	     32.97325661	     32.97325661	      7.23032816	    -15.50754839	      8.78550605	    -11.95770968	      4.52066264	      1.80485703	     15.85968935	    -21.11478373	     -3.18613836	     52.08045397	     44.66607648	      0.00000000	      0.00000000	      3.94858572	    -11.73123813	     -8.87005639	     43.51544125	     45.03601501	      0.00000000	      0.00000000
     40.85700000	     -5.08096315	     -3.84070813	      7.11036417	      1.08923365	      0.93166323	      0.53133039	     11.17142593	      2.63631363	    -16.02220030	     14.43830851	     14.43830851	      9.90907454	     -1.54634111	     -5.32121635	     34.31375865	     -9.02522321	      2.16142806	     29.29520914	     29.29520914	      7.07210855	    -13.53244355	      8.87863334	    -12.02240228	      4.40459628	      1.75713808	     16.58049944	    -21.09733801	     -3.05722526	     52.60572693	     44.65609520	      0.00000000	      0.00000000	      3.85326781	    -11.73271081	     -8.87587582	     42.99545469	     45.05051460	      0.00000000	      0.00000000
